HIERARCHY
ROOT Hips
{
	OFFSET	0.00	0.00	0.00
	CHANNELS 6 Xposition Yposition Zposition Zrotation Xrotation Yrotation
	JOINT Chest
	{
		OFFSET	 0.00	 5.21	 0.00
		CHANNELS 3 Zrotation Xrotation Yrotation
		JOINT Neck
		{
			OFFSET	 0.00	 18.65	 0.00
			CHANNELS 3 Zrotation Xrotation Yrotation
			JOINT Head
			{
				OFFSET	 0.00	 5.45	 0.00
				CHANNELS 3 Zrotation Xrotation Yrotation
				End Site 
				{
					OFFSET	 0.00	 3.87	 0.00
				}
			}
		}
		JOINT LeftCollar
		{
			OFFSET	 1.12	 16.23	 1.87
			CHANNELS 3 Zrotation Xrotation Yrotation
			JOINT LeftUpArm
			{
				OFFSET	 5.54	 0.00	 0.00
				CHANNELS 3 Zrotation Xrotation Yrotation
				JOINT LeftLowArm
				{
					OFFSET	 0.00	-11.96	 0.00
					CHANNELS 3 Zrotation Xrotation Yrotation
					JOINT LeftHand
					{
						OFFSET	 0.00	-9.93	 0.00
						CHANNELS 3 Zrotation Xrotation Yrotation
						End Site 
						{
							OFFSET	 0.00	-7.00	 0.00
						}
					}
				}
			}
		}
		JOINT RightCollar
		{
			OFFSET	-1.12	 16.23	 1.87
			CHANNELS 3 Zrotation Xrotation Yrotation
			JOINT RightUpArm
			{
				OFFSET	-6.07	 0.00	 0.00
				CHANNELS 3 Zrotation Xrotation Yrotation
				JOINT RightLowArm
				{
					OFFSET	 0.00	-11.82	 0.00
					CHANNELS 3 Zrotation Xrotation Yrotation
					JOINT RightHand
					{
						OFFSET	 0.00	-10.65	 0.00
						CHANNELS 3 Zrotation Xrotation Yrotation
						End Site 
						{
							OFFSET	 0.00	-7.00	 0.00
						}
					}
				}
			}
		}
	}
	JOINT LeftUpLeg
	{
		OFFSET	 3.91	 0.00	 0.00
		CHANNELS 3 Zrotation Xrotation Yrotation
		JOINT LeftLowLeg
		{
			OFFSET	 0.00	-18.34	 0.00
			CHANNELS 3 Zrotation Xrotation Yrotation
			JOINT LeftFoot
			{
				OFFSET	 0.00	-17.37	 0.00
				CHANNELS 3 Zrotation Xrotation Yrotation
				End Site 
				{
					OFFSET	 0.00	-3.46	 0.00
				}
			}
		}
	}
	JOINT RightUpLeg
	{
		OFFSET	-3.91	 0.00	 0.00
		CHANNELS 3 Zrotation Xrotation Yrotation
		JOINT RightLowLeg
		{
			OFFSET	 0.00	-17.63	 0.00
			CHANNELS 3 Zrotation Xrotation Yrotation
			JOINT RightFoot
			{
				OFFSET	 0.00	-17.14	 0.00
				CHANNELS 3 Zrotation Xrotation Yrotation
				End Site 
				{
					OFFSET	 0.00	-3.75	 0.00
				}
			}
		}
	}
}
MOTION
Frames:			13
Frame Time: 0.033333
-9.86	 37.04	 5.03	 5.21	-7.75	 4.76	-13.00	 32.56	-8.30	 17.77	 27.78	-0.01	 0.32	-41.56	 11.74	 11.01	 0.00	-0.17	 60.53	 24.41	 6.28	-119.67	-73.58	-116.52	 0.71	 0.51	-0.01	-8.93	 0.00	-37.94	-90.31	-28.63	-38.66	 6.47	-73.39	 2.54	-1.55	 1.41	 0.04	 6.17	 10.30	-1.11	-0.39	 43.06	 18.77	 0.00	-19.99	 0.00	-13.54	-19.19	-4.53	 9.58	 40.40	-19.11	 0.00	-13.53	 0.00	
-9.94	 37.27	 5.84	 5.84	-7.30	 4.83	-10.99	 32.43	-8.81	 18.43	 26.70	-0.01	-0.23	-41.54	 10.92	 15.95	 0.00	 0.22	 56.99	 24.34	 4.54	-124.19	-74.06	-121.11	 0.71	 0.55	-0.01	-4.38	 0.00	-51.71	-97.80	-46.04	-41.69	 0.10	-70.84	-4.22	-1.58	 1.70	 0.05	 5.64	 8.24	-0.81	-0.39	 46.75	 17.74	 0.00	-15.56	 0.00	-13.65	-17.94	-4.28	 9.07	 39.87	-19.08	 0.00	-14.54	 0.00	
-9.97	 37.46	 6.59	 6.32	-7.01	 4.93	-8.21	 32.48	-8.46	 18.51	 25.23	-0.01	-1.28	-41.49	 9.32	 19.61	 0.00	 0.39	 55.27	 22.84	 3.10	-128.19	-74.52	-125.11	 0.71	 0.59	-0.01	-1.44	 0.00	-61.57	-106.13	-55.83	-47.95	-0.47	-68.43	-4.90	-1.60	 1.93	 0.05	 5.11	 5.81	-0.52	-0.10	 50.98	 15.10	 0.00	-12.42	 0.00	-13.70	-16.50	-3.96	 8.67	 39.14	-19.13	 0.00	-15.42	 0.00	
-9.97	 37.61	 7.35	 6.60	-7.04	 4.97	-4.97	 32.87	-7.04	 17.91	 23.50	-0.01	-2.56	-41.42	 7.40	 22.62	 0.00	 0.47	 54.46	 20.00	 2.09	-132.26	-75.10	-129.17	 0.71	 0.62	-0.01	-4.56	 0.00	-62.55	-100.10	-55.16	-40.68	-2.38	-67.59	-6.92	-1.60	 2.00	 0.06	 4.58	 3.34	-0.27	 0.26	 55.48	 11.92	 0.00	-11.41	 0.00	-13.59	-14.85	-3.54	 8.28	 38.47	-19.14	 0.00	-16.25	 0.00	
-9.94	 37.72	 8.11	 6.78	-7.24	 5.00	-1.71	 33.43	-4.98	 16.88	 21.68	-0.01	-3.69	-41.35	 5.68	 25.50	 0.00	 0.42	 53.54	 16.78	 1.14	-138.73	-76.03	-135.55	 0.71	 0.66	-0.01	-8.22	 0.00	-53.15	-91.47	-41.66	-32.95	-1.72	-69.39	-6.22	-1.58	 1.82	 0.05	 3.88	 0.72	-0.05	 0.57	 59.78	 10.19	 0.00	-11.97	 0.00	-13.45	-13.16	-3.11	 7.95	 37.94	-19.14	 0.00	-16.94	 0.00	
-9.87	 37.82	 8.83	 6.98	-7.35	 5.10	 1.23	 33.89	-2.88	 15.81	 19.88	-0.01	-4.50	-41.29	 4.46	 27.78	 0.00	 0.43	 53.06	 13.89	-0.20	-148.80	-77.05	-145.41	 0.71	 0.71	-0.01	-9.09	 0.00	-39.79	-88.16	-22.47	-32.18	 2.71	-73.11	-1.94	-1.56	 1.46	 0.04	 2.82	-2.39	 0.12	 0.79	 63.30	 10.97	 0.00	-13.06	 0.00	-13.51	-11.68	-2.79	 7.79	 37.54	-19.26	 0.00	-17.42	 0.00	
-9.78	 37.92	 9.52	 7.17	-7.42	 5.19	 3.80	 34.33	-1.15	 14.99	 18.13	-0.01	-5.05	-41.25	 3.63	 28.92	 0.00	 1.10	 54.06	 11.03	-2.07	-160.70	-77.88	-157.05	 0.71	 0.74	-0.01	-9.46	 0.00	-31.03	-85.03	-8.28	-31.83	 8.11	-76.79	 3.08	-1.54	 1.09	 0.03	 1.68	-5.85	 0.17	 0.69	 65.68	 13.17	 0.00	-14.21	 0.00	-13.66	-10.30	-2.49	 7.79	 37.19	-19.44	 0.00	-17.82	 0.00	
-9.69	 38.04	 10.20	 7.22	-7.76	 5.22	 6.19	 35.04	-0.03	 14.46	 16.45	-0.01	-5.48	-41.22	 2.98	 28.76	 0.00	 3.11	 56.92	 7.29	-4.39	-173.12	-78.69	-169.28	 0.71	 0.75	-0.01	-8.67	 0.00	-27.95	-82.96	-1.92	-30.85	 11.95	-78.67	 6.66	-1.54	 0.93	 0.02	 0.82	-9.17	 0.13	 0.24	 66.81	 14.99	 0.00	-15.29	 0.00	-13.61	-8.60	-2.07	 7.82	 36.74	-19.75	 0.00	-18.24	 0.00	
-9.59	 38.15	 10.87	 7.11	-8.36	 5.18	 8.45	 36.02	 0.41	 14.16	 14.90	-0.01	-5.86	-41.19	 2.41	 27.93	 0.00	 7.20	 60.91	 1.75	-7.03	 172.58	-79.51	 176.50	 0.71	 0.72	-0.01	-5.49	 0.00	-28.59	-83.53	-1.80	-31.65	 20.02	-78.16	 14.53	-1.53	 0.96	 0.03	 0.34	-12.15	 0.07	-0.57	 66.49	 15.89	 0.00	-15.99	 0.00	-13.36	-6.56	-1.56	 7.89	 36.20	-20.29	 0.00	-18.86	 0.00	
-9.43	 38.23	 11.56	 6.91	-8.86	 4.99	 10.37	 36.91	 0.30	 13.93	 13.56	-0.01	-6.19	-41.16	 1.90	 27.47	 0.00	 12.02	 64.54	-3.94	-8.95	 156.21	-79.60	 160.16	 0.71	 0.70	-0.01	-1.54	 0.00	-29.71	-84.67	-3.63	-32.74	 24.57	-76.96	 18.80	-1.53	 1.05	 0.03	 0.04	-14.98	 0.01	-1.61	 64.71	 16.38	 0.00	-16.23	 0.00	-13.24	-4.65	-1.09	 8.11	 35.59	-20.81	 0.00	-19.50	 0.00	
-9.23	 38.28	 12.24	 6.64	-9.07	 4.69	 11.90	 37.47	-0.26	 13.70	 12.43	-0.01	-6.49	-41.13	 1.45	 27.16	 0.00	 15.24	 67.74	-6.89	-9.43	 141.84	-78.24	 145.75	 0.71	 0.72	-0.01	 1.73	 0.00	-29.47	-84.94	-4.44	-33.66	 29.26	-75.57	 23.51	-1.51	 1.13	 0.03	-0.17	-17.74	-0.05	-2.31	 61.52	 16.45	 0.00	-16.32	 0.00	-13.35	-3.04	-0.72	 8.43	 34.78	-21.09	 0.00	-19.80	 0.00	
-9.00	 38.32	 12.94	 6.21	-9.03	 4.38	 13.23	 37.65	-1.22	 13.55	 11.47	-0.01	-6.76	-41.10	 1.04	 26.82	 0.00	 16.48	 70.78	-6.88	-8.90	 133.00	-75.90	 136.78	 0.71	 0.78	-0.01	 3.86	 0.00	-28.15	-84.36	-4.13	-34.54	 37.19	-73.22	 31.91	-1.48	 1.21	 0.03	-0.21	-20.19	-0.07	-2.14	 57.02	 16.02	 0.00	-16.54	 0.00	-13.42	-1.66	-0.40	 8.78	 33.86	-21.32	 0.00	-19.91	 0.00	
-8.77	 38.32	 13.68	 5.53	-8.90	 4.05	 14.52	 37.55	-2.33	 13.54	 10.63	-0.01	-6.99	-41.07	 0.69	 26.40	 0.00	 17.05	 73.77	-6.17	-7.99	 128.31	-73.67	 131.94	 0.71	 0.84	-0.01	 5.39	 0.00	-26.94	-83.84	-4.02	-35.74	 46.26	-69.22	 41.75	-1.47	 1.34	 0.03	 0.06	-22.02	 0.02	-1.36	 51.41	 15.21	 0.00	-16.78	 0.00	-13.17	-0.38	-0.09	 9.04	 33.07	-21.33	 0.00	-20.13	 0.00	
